<?xml version="1.0" encoding="UTF-8" standalone="no"?>
<!-- Created with Inkscape (http://www.inkscape.org/) -->

<svg
   version="1.1"
   id="svg1"
   width="251"
   height="251"
   viewBox="80 80 823.59375 803.98438"
   sodipodi:docname="icon.svg"
   inkscape:version="1.4 (86a8ad7, 2024-10-11)"
   inkscape:export-filename="icon.png"
   inkscape:export-xdpi="96"
   inkscape:export-ydpi="96"
   xmlns:inkscape="http://www.inkscape.org/namespaces/inkscape"
   xmlns:sodipodi="http://sodipodi.sourceforge.net/DTD/sodipodi-0.dtd"
   xmlns="http://www.w3.org/2000/svg"
   xmlns:svg="http://www.w3.org/2000/svg">
  <sodipodi:namedview
     id="namedview1"
     pagecolor="#ffffff"
     bordercolor="#000000"
     borderopacity="0.25"
     inkscape:showpageshadow="false"
     inkscape:pageopacity="0.0"
     inkscape:pagecheckerboard="0"
     inkscape:deskcolor="#d1d1d1"
     inkscape:zoom="1"
     inkscape:cx="491.5"
     inkscape:cy="164.5"
     inkscape:window-width="1920"
     inkscape:window-height="1017"
     inkscape:window-x="1912"
     inkscape:window-y="-8"
     inkscape:window-maximized="1"
     inkscape:current-layer="g1"
     showborder="false"
     borderlayer="false"
     showguides="true" />
  <defs
     id="defs1">
    <inkscape:path-effect
       effect="fill_between_many"
       method="originald"
       linkedpaths="#path1,0,1"
       id="path-effect1"
       is_visible="true"
       lpeversion="0"
       join="true"
       close="true"
       autoreverse="true" />
  </defs>
  <g
     inkscape:groupmode="layer"
     inkscape:label="Image"
     id="g1">
    <path
       inkscape:original-d="M 0,0"
       inkscape:path-effect="#path-effect1"
       d="M 0,512 V 0 h 512 512 v 512 512 H 512 0 Z"
       id="path2"
       style="display:inline;fill:#000000" />
    <rect
       style="fill:#55789b;fill-opacity:1;stroke:#f09200;stroke-width:0;stroke-dasharray:none;stroke-opacity:1"
       id="rect12"
       width="139.45312"
       height="101.71875"
       x="688.67188"
       y="783.86719"
       transform="translate(1.2500002e-6)"
       inkscape:label="gear5" />
    <rect
       style="fill:#55789b;fill-opacity:1;stroke:#f09200;stroke-width:0;stroke-dasharray:none;stroke-opacity:1"
       id="rect11"
       width="54.140625"
       height="93.515625"
       x="596.79688"
       y="678.86719"
       transform="translate(1.2500002e-6)"
       inkscape:label="gear4" />
    <rect
       style="fill:#55789b;fill-opacity:1;stroke:#f09200;stroke-width:0;stroke-dasharray:none;stroke-opacity:1"
       id="rect9"
       width="127.96875"
       height="90.234375"
       x="691.95312"
       y="575.50781"
       inkscape:label="gear3" />
    <rect
       style="fill:#55789b;fill-opacity:1;stroke:#f09200;stroke-width:0;stroke-dasharray:none;stroke-opacity:1"
       id="rect10"
       width="96.796875"
       height="257.57812"
       x="806.79688"
       y="593.55469"
       inkscape:label="gear2" />
    <rect
       style="fill:#55789b;fill-opacity:1;stroke:#f09200;stroke-width:0;stroke-dasharray:none;stroke-opacity:1"
       id="rect8"
       width="77.109375"
       height="257.57812"
       x="636.17188"
       y="600.11719"
       inkscape:label="gear1" />
    <rect
       style="fill:#f09200;fill-opacity:1;stroke:#4e4e4e;stroke-width:0;stroke-dasharray:none;stroke-opacity:0.23301"
       id="rect5"
       width="318.28125"
       height="315"
       x="88.203125"
       y="99.726562"
       inkscape:transform-center-x="17.862724"
       inkscape:transform-center-y="-1.640625"
       inkscape:label="sun3" />
    <rect
       style="fill:#f09200;fill-opacity:1;stroke:#4e4e4e;stroke-width:0;stroke-dasharray:none;stroke-opacity:0.23301"
       id="rect7"
       width="82.03125"
       height="54.140625"
       x="375.3125"
       y="253.94531"
       transform="translate(1.2500002e-6)"
       inkscape:label="sun2" />
    <rect
       style="fill:#f09200;fill-opacity:1;stroke:#f09200;stroke-width:0;stroke-dasharray:none;stroke-opacity:1"
       id="rect6"
       width="55.78125"
       height="88.59375"
       x="245.70312"
       y="380.27344"
       inkscape:label="sun1" />
    <path
       style="display:inline;opacity:1;fill:#ffffff;stroke:none;stroke-width:0;stroke-dasharray:none;stroke-opacity:1"
       d="M 0,512 V 0 h 512 512 v 512 512 H 512 0 Z M 782.08412,867.23422 C 784.97006,864.00198 785,863.8422 785,851.67535 c 0,-8.30213 0.40581,-12.82004 1.25,-13.91623 0.6875,-0.89273 3.95,-2.38097 7.25,-3.3072 3.3,-0.92623 9.32587,-3.20683 13.39083,-5.06799 4.06496,-1.86116 7.71301,-3.38393 8.10679,-3.38393 0.39378,0 5.2751,4.275 10.84739,9.5 8.76914,8.2226 10.59732,9.5 13.59616,9.5 1.9056,0 4.4984,-0.47674 5.76178,-1.05943 1.26338,-0.58269 8.70955,-7.45583 16.54705,-15.27365 L 876,814.4527 v -4.64963 c 0,-5.29208 -1.09991,-6.94051 -12.34413,-18.50017 l -7.00072,-7.19709 3.09166,-6.80291 c 1.70041,-3.74159 4.32503,-10.32892 5.83248,-14.63851 2.10042,-6.00475 3.30279,-8.04926 5.14587,-8.75 C 872.04793,753.41148 878.02973,753 884.01805,753 902.59137,753 903,752.38961 903,724.64592 c 0,-12.64538 -0.40768,-20.44658 -1.15413,-22.08484 -2.2197,-4.87172 -5.35631,-5.98307 -17.84587,-6.32307 -16.11755,-0.43876 -15.48191,-0.17322 -17.92034,-7.48647 -1.14643,-3.43835 -3.65835,-9.37574 -5.58204,-13.19421 C 858.57393,671.73887 857,667.90449 857,667.03648 c 0,-0.868 4.05,-5.60941 9,-10.53648 8.84825,-8.80725 9,-9.03953 9,-13.77592 v -4.81762 l -15.25,-14.94585 c -8.92465,-8.74665 -16.53828,-15.37613 -18.35596,-15.98324 -4.75867,-1.58941 -7.87217,0.15489 -18.00934,10.08948 -5.01341,4.91323 -9.56992,8.93315 -10.12557,8.93315 -0.55565,0 -3.56607,-1.13029 -6.68982,-2.51177 -3.12375,-1.38147 -8.91725,-3.40604 -12.87443,-4.49904 -3.95718,-1.093 -7.75738,-2.74872 -8.44488,-3.67936 -0.82732,-1.11992 -1.25,-5.53291 -1.25,-13.05062 0,-12.14517 -1.00537,-15.74871 -5.21679,-18.69851 C 776.94203,582.2711 773.03548,582 756.29327,582 h -20.26172 l -3.26577,2.91549 -3.26578,2.91549 -0.33442,13.33377 c -0.18393,7.33357 -0.79862,13.89309 -1.36596,14.5767 -0.56735,0.68361 -4.22201,2.19309 -8.12146,3.3544 -3.89945,1.1613 -9.52826,3.18982 -12.50846,4.50781 -2.98021,1.31799 -6.06193,2.39634 -6.84826,2.39634 -0.78634,0 -5.8353,-4.275 -11.21991,-9.5 -9.33458,-9.05788 -9.99364,-9.5 -14.16126,-9.5 -4.31011,0 -4.59107,0.22003 -20.15565,15.78462 C 639.56283,638.0064 639,638.71473 639,642.64976 c 0,4.77457 1.56763,7.03716 11.21528,16.18719 3.69341,3.5029 6.97669,7.19254 7.2962,8.19921 0.33873,1.06724 -0.83919,4.67223 -2.8254,8.64707 -1.87347,3.74922 -4.20208,9.29177 -5.17467,12.31677 -2.83062,8.80385 -2.81828,8.79745 -17.67538,9.17221 l -12.9948,0.32779 -3.42061,3.73531 -3.42062,3.73532 0.004,19.76468 c 0.003,18.06003 0.1778,20.05019 2.02189,23.07487 2.96963,4.87076 7.14778,6.18732 19.69225,6.20513 5.93017,0.008 11.34155,0.37059 12.0253,0.80481 0.68375,0.43422 2.30703,3.91483 3.60729,7.73468 1.30025,3.81986 3.77832,9.74487 5.50681,13.16668 1.7285,3.42182 3.14272,6.72492 3.14272,7.34022 0,0.6153 -4.02465,5.28628 -8.94366,10.37996 -14.46335,14.97691 -14.29704,15.9407 6.27411,36.35792 L 670.64546,845 h 4.81197 c 4.71509,0 4.99782,-0.18225 14.04244,-9.05199 5.07675,-4.9786 10.08141,-9.11609 11.12146,-9.19444 1.04005,-0.0783 5.71322,1.48312 10.38483,3.46991 4.67161,1.98679 10.44947,4.18344 12.83969,4.88144 5.53129,1.61527 6.15313,3.25221 6.15789,16.21018 0.003,8.44732 0.34767,10.74901 2.01969,13.49145 3.43535,5.63463 6.11426,6.20634 27.81069,5.93513 L 779.16824,870.5 Z M 749.5,807.32644 c -33.83285,-4.21663 -61.36047,-27.53889 -70.69456,-59.89465 -3.23686,-11.22024 -3.22303,-30.4364 0.0301,-41.86358 8.03828,-28.23567 30.20137,-50.02386 58.66444,-57.67209 11.19021,-3.00689 29.75997,-3.02098 40.87816,-0.031 40.52858,10.89914 67.04582,50.65043 60.29823,90.39144 -3.25499,19.17076 -11.30061,34.43284 -25.02364,47.46837 -16.82951,15.98639 -41.78466,24.3893 -64.15275,21.60153 z M 781.06356,764.5 c 9.89263,-9.9 18.24984,-19.01546 18.57158,-20.25657 C 801.40954,737.39857 796.04165,730 789.30109,730 c -3.08856,0 -4.6251,1.05381 -11.92328,8.17738 L 769,746.35476 V 711.07738 675.8 l -3.4,-3.4 c -2.89737,-2.89737 -4.0914,-3.4 -8.07692,-3.4 -3.8359,0 -5.20257,0.52564 -7.6,2.92308 L 747,674.84615 v 35.75431 35.7543 l -8.37781,-8.17738 C 731.27011,731.0012 729.80282,730 726.63796,730 c -2.57179,0 -4.5433,0.83711 -6.87218,2.91797 -2.87489,2.56871 -3.26578,3.52504 -3.26578,7.98985 v 5.07188 l 18.44605,18.46629 c 10.14533,10.15646 19.37033,18.60904 20.5,18.7835 5.44612,0.8411 7.7301,-0.82877 25.61751,-18.72949 z m -169.87864,58.22667 c -2.58477,-3.42467 -6.04629,-8.8131 -7.69225,-11.97429 L 600.5,805.00475 402.37769,805.00238 204.25537,805 203.55283,739.75 c -0.3864,-35.8875 -0.55635,-122.92484 -0.37768,-193.4163 0.17867,-70.49147 -0.0142,-128.50551 -0.42857,-128.92009 -0.41438,-0.41458 -4.23938,2.60481 -8.5,6.70976 -4.26062,4.10494 -9.09658,8.42035 -10.74658,9.58979 l -3,2.12625 -0.27497,189.64972 -0.27496,189.64972 2.20138,3.91683 c 1.21076,2.15426 3.99598,5.16052 6.18937,6.68058 l 3.98799,2.76374 211.0856,0.5 c 116.09707,0.275 211.39711,0.377 211.77785,0.22667 0.38074,-0.15033 -1.42256,-3.07533 -4.00734,-6.5 z M 579.41821,717.39301 C 580.55922,716.95516 581,715.43682 581,711.94423 c 0,-9.26221 3.03551,-27.90765 6.50688,-39.96815 C 589.4281,665.30127 591,659.42604 591,658.92003 591,658.36402 530.70244,658 438.60196,658 H 286.20392 l -12.6075,22.75 c -6.93412,12.5125 -14.03667,25.25015 -15.78343,28.3059 -5.69123,9.95607 -23.68951,8.9441 159.07384,8.9441 88.52228,0 161.6614,-0.27314 162.53138,-0.60699 z m 36.74096,-102.25422 c 14.4455,-19.43921 33.98443,-35.64682 56.80751,-47.12204 4.41833,-2.22149 8.03332,-4.25905 8.03332,-4.52791 0,-0.26886 -88.7625,-0.4835 -197.25,-0.47697 l -197.25,0.0119 -3.42047,6.23814 c -1.88126,3.43097 -8.96876,15.67722 -15.75,27.21388 C 260.54829,608.01241 255,618.24991 255,619.22575 255,620.91812 263.23293,621 433.40182,621 H 611.80363 Z M 860,390.96016 c 0,-185.48848 -0.055,-191.14765 -1.89359,-194.75 -2.3389,-4.58267 -4.54113,-6.62025 -9.64301,-8.92202 -3.75941,-1.69611 -14.5705,-1.80173 -210.05129,-2.0521 l -206.08788,-0.26397 -5.36751,6.26397 c -2.95213,3.44518 -8.17985,9.07646 -11.61716,12.51396 L 409.08991,210 H 622.54495 836 v 178.90961 178.90962 l 7.25,3.99646 c 3.9875,2.19806 9.05,5.35792 11.25,7.02191 2.2,1.66399 4.3375,3.05625 4.75,3.09392 0.4125,0.0377 0.75,-85.89945 0.75,-190.97136 z m -102,155.4994 v -10.54044 l -8.25,0.29044 c -4.5375,0.15974 -8.1375,0.62794 -8,1.04044 0.1375,0.4125 0.25,5.025 0.25,10.25 v 9.5 h 8 8 z M 773.07158,515.75 c 7.23565,-12.6108 15.50743,-26.90131 21.81987,-37.69647 C 798.25115,472.30797 801,467.02047 801,466.30353 801,465.27258 796.50423,465 779.5,465 H 758 v -13 -13 l -8.25,-0.002 -8.25,-0.002 0.30509,12.36015 0.30509,12.36015 -49.30509,0.54792 C 665.68729,464.56594 569.475,464.88516 479,464.97395 333.94854,465.1163 314.38177,465.31287 313.5,466.63662 293.09721,497.26605 278,520.68089 278,521.69496 278,522.7648 322.23678,523 523.45589,523 H 768.91178 Z M 280.07955,452.29394 C 285.46968,449.10991 286,446.41844 286,422.24675 c 0,-21.19367 -0.0787,-22.06771 -2.28002,-25.3343 -3.05695,-4.53621 -6.289,-6.08732 -11.59162,-5.56298 -3.21314,0.31772 -5.20067,1.26131 -7.5,3.56063 L 261.5,398.03846 v 24.40021 24.4002 l 2.5,2.68992 c 4.39271,4.72643 10.87288,5.8408 16.07955,2.76515 z M 775.1754,415.75 c 3.01543,-5.6375 10.10131,-18.6629 15.74641,-28.94533 5.64509,-10.28243 9.97048,-19.16993 9.61198,-19.75 C 800.11029,366.36944 792.54665,366 778.94098,366 H 758 v -13 -13 h -8.59064 -8.59064 l 0.71897,13 0.71897,13 -141.37833,0.0121 -141.37833,0.0121 -6,11.73786 c -8.69515,17.01041 -16.23645,27.97182 -26.47176,38.47717 -4.96245,5.09338 -9.0239,9.37319 -9.02544,9.51069 -0.002,0.1375 79.12808,0.25 175.8436,0.25 H 769.69281 Z M 178.71831,390.71831 196,373.43662 v -4.733 c 0,-3.99477 -0.53392,-5.3156 -3.42316,-8.46831 -3.08992,-3.37168 -3.91631,-3.73531 -8.48895,-3.73531 h -5.0658 l -17.01045,16.98838 c -18.44594,18.422 -19.47343,20.0773 -16.65278,26.82807 1.88866,4.5202 6.86291,7.67487 12.10945,7.67981 3.80621,0.004 4.67426,-0.70221 21.25,-17.27795 z m 217.71613,16.30662 c 3.49954,-1.33053 6.55729,-6.68627 6.56182,-11.49324 0.004,-3.80719 -0.69666,-4.66738 -17.24626,-21.18559 -11.159,-11.13783 -18.25302,-17.46288 -20.09059,-17.91284 -7.75574,-1.89908 -14.64849,3.97898 -14.65567,12.49822 -0.004,4.38827 0.15467,4.59147 16.24626,20.84406 8.9375,9.02692 17.15,16.79173 18.25,17.25513 2.76266,1.16385 7.86523,1.16117 10.93444,-0.006 z m -98.34105,-36.86259 c 32.22046,-8.48818 58.15332,-34.57513 67.19757,-67.59684 3.07911,-11.24225 3.04825,-33.41919 -0.0623,-44.74093 -7.99182,-29.08887 -25.72934,-50.75383 -51.40333,-62.78507 -15.02597,-7.04141 -22.0607,-8.51682 -40.32537,-8.45758 -13.26027,0.043 -17.36986,0.42745 -24,2.24514 -32.313,8.85881 -57.64384,33.74283 -67.05923,65.87635 -3.20916,10.95244 -4.29065,27.72922 -2.5022,38.81573 5.48269,33.98696 29.70932,62.55535 62.77575,74.02607 5.55461,1.92689 12.72873,3.91754 15.94248,4.42368 9.35502,1.47333 30.69764,0.49564 39.43659,-1.80655 z M 775.27323,316.25 c 20.54142,-37.18632 24.97104,-45.48721 25.09115,-47.01958 C 800.49241,267.59683 791.96617,267.5 648,267.5 H 495.5 l -7.1354,13.72309 c -8.81538,16.95412 -14.93078,25.29788 -26.57667,36.26083 L 452.74135,326 H 611.31438 769.8874 Z M 152.96537,290.69356 C 157.07776,289.27715 161,283.93645 161,279.75325 c 0,-4.36377 -2.87087,-9.63511 -6.17919,-11.34591 -2.41209,-1.24734 -7.19025,-1.45351 -27.94878,-1.20595 l -25.03929,0.29861 -2.86276,3.20578 c -5.532795,6.19573 -4.49863,15.17244 2.21984,19.26859 3.06889,1.87104 4.9503,2.01431 25.81018,1.96545 14.69675,-0.0344 23.70183,-0.46664 25.96537,-1.24626 z m 290.31675,-0.0555 c 5.37149,-2.27351 7.21788,-5.14464 7.21788,-11.22378 0,-4.74051 -0.38685,-5.76211 -3.27365,-8.64501 l -3.27364,-3.26923 -24.22636,0.0184 c -13.32449,0.0102 -25.42668,0.34689 -26.89375,0.74832 -3.59285,0.9831 -6.8326,6.46746 -6.8326,11.56647 0,3.1408 0.71148,4.9075 3.04805,7.56871 1.67643,1.90935 4.03893,3.66372 5.25,3.89861 1.21107,0.23489 12.0039,0.48836 23.98407,0.56326 16.39262,0.10248 22.57831,-0.20081 25,-1.2258 z m -251.0479,-90.55599 c 2.95227,-2.63785 3.26578,-3.4561 3.26578,-8.52345 v -5.60549 L 178.44132,168.97655 C 161.68466,152.30056 161.30675,152 157.09562,152 c -8.2096,0 -13.78713,5.80773 -12.78106,13.30856 0.49913,3.72126 2.11371,5.65733 17.42644,20.89634 L 178.61735,203 h 5.17555 c 4.30548,0 5.72456,-0.49054 8.44132,-2.91797 z m 176.61195,2.0342 c 3.78254,-2.39719 33.29631,-32.83572 33.80557,-34.8648 C 404.57686,159.58115 399.24159,152 391.91848,152 c -2.22748,0 -5.03288,0.49838 -6.23422,1.1075 -3.12423,1.58411 -31.54073,29.86411 -33.25257,33.09284 -0.78743,1.48519 -1.43001,3.96019 -1.42795,5.5 0.005,3.5931 3.36271,9.10899 6.25258,10.27084 2.88677,1.16059 9.84991,1.24774 11.58985,0.14505 z m -87.86962,-36.93652 c 4.65134,-3.45149 4.99301,-5.32476 5.00871,-27.46183 0.0156,-21.95788 -0.53339,-25.27978 -4.80666,-29.08614 -2.91106,-2.59299 -10.06904,-3.25688 -13.87804,-1.28716 -5.64202,2.9176 -6.30098,6.03684 -6.29682,29.80655 0.003,19.6413 0.16498,21.61334 2.01969,24.65542 3.70419,6.07557 12.16816,7.66584 17.95312,3.37316 z"
       id="path1" />
  </g>
</svg>
