<?xml version="1.0" encoding="UTF-8" standalone="no"?>
<!-- Created with Inkscape (http://www.inkscape.org/) -->

<svg
   version="1.1"
   id="svg1"
   width="1020"
   height="251"
   viewBox="80 80 3346.875 803.98438"
   sodipodi:docname="logo.svg"
   inkscape:version="1.4 (86a8ad7, 2024-10-11)"
   xmlns:inkscape="http://www.inkscape.org/namespaces/inkscape"
   xmlns:sodipodi="http://sodipodi.sourceforge.net/DTD/sodipodi-0.dtd"
   xmlns="http://www.w3.org/2000/svg"
   xmlns:svg="http://www.w3.org/2000/svg">
  <sodipodi:namedview
     id="namedview1"
     pagecolor="#ffffff"
     bordercolor="#000000"
     borderopacity="0.25"
     inkscape:showpageshadow="false"
     inkscape:pageopacity="0.0"
     inkscape:pagecheckerboard="0"
     inkscape:deskcolor="#d1d1d1"
     inkscape:zoom="1"
     inkscape:cx="141"
     inkscape:cy="164.5"
     inkscape:window-width="1920"
     inkscape:window-height="1017"
     inkscape:window-x="-8"
     inkscape:window-y="-8"
     inkscape:window-maximized="1"
     inkscape:current-layer="g1"
     showborder="false"
     borderlayer="false"
     showguides="true" />
  <defs
     id="defs1">
    <inkscape:path-effect
       effect="fill_between_many"
       method="originald"
       linkedpaths="#path1,0,1"
       id="path-effect1"
       is_visible="true"
       lpeversion="0"
       join="true"
       close="true"
       autoreverse="true" />
  </defs>
  <g
     inkscape:groupmode="layer"
     inkscape:label="Image"
     id="g1">
    <path
       inkscape:original-d="M 0,0"
       inkscape:path-effect="#path-effect1"
       d="M 0,512 V 0 h 512 512 v 512 512 H 512 0 Z"
       id="path2"
       style="display:inline;fill:#000000" />
    <rect
       style="fill:#55789b;fill-opacity:1;stroke:#f09200;stroke-width:0;stroke-dasharray:none;stroke-opacity:1"
       id="rect12"
       width="139.45312"
       height="101.71875"
       x="688.67188"
       y="783.86719"
       transform="translate(1.2500002e-6)"
       inkscape:label="gear5" />
    <rect
       style="fill:#55789b;fill-opacity:1;stroke:#f09200;stroke-width:0;stroke-dasharray:none;stroke-opacity:1"
       id="rect11"
       width="54.140625"
       height="93.515625"
       x="596.79688"
       y="678.86719"
       transform="translate(1.2500002e-6)"
       inkscape:label="gear4" />
    <rect
       style="fill:#55789b;fill-opacity:1;stroke:#f09200;stroke-width:0;stroke-dasharray:none;stroke-opacity:1"
       id="rect9"
       width="127.96875"
       height="90.234375"
       x="691.95312"
       y="575.50781"
       inkscape:label="gear3" />
    <rect
       style="fill:#55789b;fill-opacity:1;stroke:#f09200;stroke-width:0;stroke-dasharray:none;stroke-opacity:1"
       id="rect10"
       width="96.796875"
       height="257.57812"
       x="806.79688"
       y="593.55469"
       inkscape:label="gear2" />
    <rect
       style="fill:#55789b;fill-opacity:1;stroke:#f09200;stroke-width:0;stroke-dasharray:none;stroke-opacity:1"
       id="rect8"
       width="77.109375"
       height="257.57812"
       x="636.17188"
       y="600.11719"
       inkscape:label="gear1" />
    <rect
       style="fill:#f09200;stroke:#4e4e4e;stroke-width:0;stroke-dasharray:none;stroke-opacity:0.23301;fill-opacity:1"
       id="rect5"
       width="318.28125"
       height="315"
       x="88.203125"
       y="99.726562"
       inkscape:transform-center-x="17.862724"
       inkscape:transform-center-y="-1.640625"
       inkscape:label="sun3" />
    <rect
       style="fill:#f09200;stroke:#4e4e4e;stroke-width:0;stroke-dasharray:none;stroke-opacity:0.23301;fill-opacity:1"
       id="rect7"
       width="82.03125"
       height="54.140625"
       x="375.3125"
       y="253.94531"
       transform="translate(1.2500002e-6)"
       inkscape:label="sun2" />
    <rect
       style="fill:#f09200;stroke:#f09200;stroke-width:0;stroke-dasharray:none;stroke-opacity:1;fill-opacity:1"
       id="rect6"
       width="55.78125"
       height="88.59375"
       x="245.70312"
       y="380.27344"
       inkscape:label="sun1" />
    <path
       style="display:inline;opacity:1;fill:#ffffff;stroke:none;stroke-width:0;stroke-dasharray:none;stroke-opacity:1"
       d="M 0,512 V 0 h 512 512 v 512 512 H 512 0 Z M 782.08412,867.23422 C 784.97006,864.00198 785,863.8422 785,851.67535 c 0,-8.30213 0.40581,-12.82004 1.25,-13.91623 0.6875,-0.89273 3.95,-2.38097 7.25,-3.3072 3.3,-0.92623 9.32587,-3.20683 13.39083,-5.06799 4.06496,-1.86116 7.71301,-3.38393 8.10679,-3.38393 0.39378,0 5.2751,4.275 10.84739,9.5 8.76914,8.2226 10.59732,9.5 13.59616,9.5 1.9056,0 4.4984,-0.47674 5.76178,-1.05943 1.26338,-0.58269 8.70955,-7.45583 16.54705,-15.27365 L 876,814.4527 v -4.64963 c 0,-5.29208 -1.09991,-6.94051 -12.34413,-18.50017 l -7.00072,-7.19709 3.09166,-6.80291 c 1.70041,-3.74159 4.32503,-10.32892 5.83248,-14.63851 2.10042,-6.00475 3.30279,-8.04926 5.14587,-8.75 C 872.04793,753.41148 878.02973,753 884.01805,753 902.59137,753 903,752.38961 903,724.64592 c 0,-12.64538 -0.40768,-20.44658 -1.15413,-22.08484 -2.2197,-4.87172 -5.35631,-5.98307 -17.84587,-6.32307 -16.11755,-0.43876 -15.48191,-0.17322 -17.92034,-7.48647 -1.14643,-3.43835 -3.65835,-9.37574 -5.58204,-13.19421 C 858.57393,671.73887 857,667.90449 857,667.03648 c 0,-0.868 4.05,-5.60941 9,-10.53648 8.84825,-8.80725 9,-9.03953 9,-13.77592 v -4.81762 l -15.25,-14.94585 c -8.92465,-8.74665 -16.53828,-15.37613 -18.35596,-15.98324 -4.75867,-1.58941 -7.87217,0.15489 -18.00934,10.08948 -5.01341,4.91323 -9.56992,8.93315 -10.12557,8.93315 -0.55565,0 -3.56607,-1.13029 -6.68982,-2.51177 -3.12375,-1.38147 -8.91725,-3.40604 -12.87443,-4.49904 -3.95718,-1.093 -7.75738,-2.74872 -8.44488,-3.67936 -0.82732,-1.11992 -1.25,-5.53291 -1.25,-13.05062 0,-12.14517 -1.00537,-15.74871 -5.21679,-18.69851 C 776.94203,582.2711 773.03548,582 756.29327,582 h -20.26172 l -3.26577,2.91549 -3.26578,2.91549 -0.33442,13.33377 c -0.18393,7.33357 -0.79862,13.89309 -1.36596,14.5767 -0.56735,0.68361 -4.22201,2.19309 -8.12146,3.3544 -3.89945,1.1613 -9.52826,3.18982 -12.50846,4.50781 -2.98021,1.31799 -6.06193,2.39634 -6.84826,2.39634 -0.78634,0 -5.8353,-4.275 -11.21991,-9.5 -9.33458,-9.05788 -9.99364,-9.5 -14.16126,-9.5 -4.31011,0 -4.59107,0.22003 -20.15565,15.78462 C 639.56283,638.0064 639,638.71473 639,642.64976 c 0,4.77457 1.56763,7.03716 11.21528,16.18719 3.69341,3.5029 6.97669,7.19254 7.2962,8.19921 0.33873,1.06724 -0.83919,4.67223 -2.8254,8.64707 -1.87347,3.74922 -4.20208,9.29177 -5.17467,12.31677 -2.83062,8.80385 -2.81828,8.79745 -17.67538,9.17221 l -12.9948,0.32779 -3.42061,3.73531 -3.42062,3.73532 0.004,19.76468 c 0.003,18.06003 0.1778,20.05019 2.02189,23.07487 2.96963,4.87076 7.14778,6.18732 19.69225,6.20513 5.93017,0.008 11.34155,0.37059 12.0253,0.80481 0.68375,0.43422 2.30703,3.91483 3.60729,7.73468 1.30025,3.81986 3.77832,9.74487 5.50681,13.16668 1.7285,3.42182 3.14272,6.72492 3.14272,7.34022 0,0.6153 -4.02465,5.28628 -8.94366,10.37996 -14.46335,14.97691 -14.29704,15.9407 6.27411,36.35792 L 670.64546,845 h 4.81197 c 4.71509,0 4.99782,-0.18225 14.04244,-9.05199 5.07675,-4.9786 10.08141,-9.11609 11.12146,-9.19444 1.04005,-0.0783 5.71322,1.48312 10.38483,3.46991 4.67161,1.98679 10.44947,4.18344 12.83969,4.88144 5.53129,1.61527 6.15313,3.25221 6.15789,16.21018 0.003,8.44732 0.34767,10.74901 2.01969,13.49145 3.43535,5.63463 6.11426,6.20634 27.81069,5.93513 L 779.16824,870.5 Z M 749.5,807.32644 c -33.83285,-4.21663 -61.36047,-27.53889 -70.69456,-59.89465 -3.23686,-11.22024 -3.22303,-30.4364 0.0301,-41.86358 8.03828,-28.23567 30.20137,-50.02386 58.66444,-57.67209 11.19021,-3.00689 29.75997,-3.02098 40.87816,-0.031 40.52858,10.89914 67.04582,50.65043 60.29823,90.39144 -3.25499,19.17076 -11.30061,34.43284 -25.02364,47.46837 -16.82951,15.98639 -41.78466,24.3893 -64.15275,21.60153 z M 781.06356,764.5 c 9.89263,-9.9 18.24984,-19.01546 18.57158,-20.25657 C 801.40954,737.39857 796.04165,730 789.30109,730 c -3.08856,0 -4.6251,1.05381 -11.92328,8.17738 L 769,746.35476 V 711.07738 675.8 l -3.4,-3.4 c -2.89737,-2.89737 -4.0914,-3.4 -8.07692,-3.4 -3.8359,0 -5.20257,0.52564 -7.6,2.92308 L 747,674.84615 v 35.75431 35.7543 l -8.37781,-8.17738 C 731.27011,731.0012 729.80282,730 726.63796,730 c -2.57179,0 -4.5433,0.83711 -6.87218,2.91797 -2.87489,2.56871 -3.26578,3.52504 -3.26578,7.98985 v 5.07188 l 18.44605,18.46629 c 10.14533,10.15646 19.37033,18.60904 20.5,18.7835 5.44612,0.8411 7.7301,-0.82877 25.61751,-18.72949 z m -169.87864,58.22667 c -2.58477,-3.42467 -6.04629,-8.8131 -7.69225,-11.97429 L 600.5,805.00475 402.37769,805.00238 204.25537,805 203.55283,739.75 c -0.3864,-35.8875 -0.55635,-122.92484 -0.37768,-193.4163 0.17867,-70.49147 -0.0142,-128.50551 -0.42857,-128.92009 -0.41438,-0.41458 -4.23938,2.60481 -8.5,6.70976 -4.26062,4.10494 -9.09658,8.42035 -10.74658,9.58979 l -3,2.12625 -0.27497,189.64972 -0.27496,189.64972 2.20138,3.91683 c 1.21076,2.15426 3.99598,5.16052 6.18937,6.68058 l 3.98799,2.76374 211.0856,0.5 c 116.09707,0.275 211.39711,0.377 211.77785,0.22667 0.38074,-0.15033 -1.42256,-3.07533 -4.00734,-6.5 z M 579.41821,717.39301 C 580.55922,716.95516 581,715.43682 581,711.94423 c 0,-9.26221 3.03551,-27.90765 6.50688,-39.96815 C 589.4281,665.30127 591,659.42604 591,658.92003 591,658.36402 530.70244,658 438.60196,658 H 286.20392 l -12.6075,22.75 c -6.93412,12.5125 -14.03667,25.25015 -15.78343,28.3059 -5.69123,9.95607 -23.68951,8.9441 159.07384,8.9441 88.52228,0 161.6614,-0.27314 162.53138,-0.60699 z m 36.74096,-102.25422 c 14.4455,-19.43921 33.98443,-35.64682 56.80751,-47.12204 4.41833,-2.22149 8.03332,-4.25905 8.03332,-4.52791 0,-0.26886 -88.7625,-0.4835 -197.25,-0.47697 l -197.25,0.0119 -3.42047,6.23814 c -1.88126,3.43097 -8.96876,15.67722 -15.75,27.21388 C 260.54829,608.01241 255,618.24991 255,619.22575 255,620.91812 263.23293,621 433.40182,621 H 611.80363 Z M 860,390.96016 c 0,-185.48848 -0.055,-191.14765 -1.89359,-194.75 -2.3389,-4.58267 -4.54113,-6.62025 -9.64301,-8.92202 -3.75941,-1.69611 -14.5705,-1.80173 -210.05129,-2.0521 l -206.08788,-0.26397 -5.36751,6.26397 c -2.95213,3.44518 -8.17985,9.07646 -11.61716,12.51396 L 409.08991,210 H 622.54495 836 v 178.90961 178.90962 l 7.25,3.99646 c 3.9875,2.19806 9.05,5.35792 11.25,7.02191 2.2,1.66399 4.3375,3.05625 4.75,3.09392 0.4125,0.0377 0.75,-85.89945 0.75,-190.97136 z m -102,155.4994 v -10.54044 l -8.25,0.29044 c -4.5375,0.15974 -8.1375,0.62794 -8,1.04044 0.1375,0.4125 0.25,5.025 0.25,10.25 v 9.5 h 8 8 z M 773.07158,515.75 c 7.23565,-12.6108 15.50743,-26.90131 21.81987,-37.69647 C 798.25115,472.30797 801,467.02047 801,466.30353 801,465.27258 796.50423,465 779.5,465 H 758 v -13 -13 l -8.25,-0.002 -8.25,-0.002 0.30509,12.36015 0.30509,12.36015 -49.30509,0.54792 C 665.68729,464.56594 569.475,464.88516 479,464.97395 333.94854,465.1163 314.38177,465.31287 313.5,466.63662 293.09721,497.26605 278,520.68089 278,521.69496 278,522.7648 322.23678,523 523.45589,523 H 768.91178 Z M 280.07955,452.29394 C 285.46968,449.10991 286,446.41844 286,422.24675 c 0,-21.19367 -0.0787,-22.06771 -2.28002,-25.3343 -3.05695,-4.53621 -6.289,-6.08732 -11.59162,-5.56298 -3.21314,0.31772 -5.20067,1.26131 -7.5,3.56063 L 261.5,398.03846 v 24.40021 24.4002 l 2.5,2.68992 c 4.39271,4.72643 10.87288,5.8408 16.07955,2.76515 z M 775.1754,415.75 c 3.01543,-5.6375 10.10131,-18.6629 15.74641,-28.94533 5.64509,-10.28243 9.97048,-19.16993 9.61198,-19.75 C 800.11029,366.36944 792.54665,366 778.94098,366 H 758 v -13 -13 h -8.59064 -8.59064 l 0.71897,13 0.71897,13 -141.37833,0.0121 -141.37833,0.0121 -6,11.73786 c -8.69515,17.01041 -16.23645,27.97182 -26.47176,38.47717 -4.96245,5.09338 -9.0239,9.37319 -9.02544,9.51069 -0.002,0.1375 79.12808,0.25 175.8436,0.25 H 769.69281 Z M 178.71831,390.71831 196,373.43662 v -4.733 c 0,-3.99477 -0.53392,-5.3156 -3.42316,-8.46831 -3.08992,-3.37168 -3.91631,-3.73531 -8.48895,-3.73531 h -5.0658 l -17.01045,16.98838 c -18.44594,18.422 -19.47343,20.0773 -16.65278,26.82807 1.88866,4.5202 6.86291,7.67487 12.10945,7.67981 3.80621,0.004 4.67426,-0.70221 21.25,-17.27795 z m 217.71613,16.30662 c 3.49954,-1.33053 6.55729,-6.68627 6.56182,-11.49324 0.004,-3.80719 -0.69666,-4.66738 -17.24626,-21.18559 -11.159,-11.13783 -18.25302,-17.46288 -20.09059,-17.91284 -7.75574,-1.89908 -14.64849,3.97898 -14.65567,12.49822 -0.004,4.38827 0.15467,4.59147 16.24626,20.84406 8.9375,9.02692 17.15,16.79173 18.25,17.25513 2.76266,1.16385 7.86523,1.16117 10.93444,-0.006 z m -98.34105,-36.86259 c 32.22046,-8.48818 58.15332,-34.57513 67.19757,-67.59684 3.07911,-11.24225 3.04825,-33.41919 -0.0623,-44.74093 -7.99182,-29.08887 -25.72934,-50.75383 -51.40333,-62.78507 -15.02597,-7.04141 -22.0607,-8.51682 -40.32537,-8.45758 -13.26027,0.043 -17.36986,0.42745 -24,2.24514 -32.313,8.85881 -57.64384,33.74283 -67.05923,65.87635 -3.20916,10.95244 -4.29065,27.72922 -2.5022,38.81573 5.48269,33.98696 29.70932,62.55535 62.77575,74.02607 5.55461,1.92689 12.72873,3.91754 15.94248,4.42368 9.35502,1.47333 30.69764,0.49564 39.43659,-1.80655 z M 775.27323,316.25 c 20.54142,-37.18632 24.97104,-45.48721 25.09115,-47.01958 C 800.49241,267.59683 791.96617,267.5 648,267.5 H 495.5 l -7.1354,13.72309 c -8.81538,16.95412 -14.93078,25.29788 -26.57667,36.26083 L 452.74135,326 H 611.31438 769.8874 Z M 152.96537,290.69356 C 157.07776,289.27715 161,283.93645 161,279.75325 c 0,-4.36377 -2.87087,-9.63511 -6.17919,-11.34591 -2.41209,-1.24734 -7.19025,-1.45351 -27.94878,-1.20595 l -25.03929,0.29861 -2.86276,3.20578 c -5.532795,6.19573 -4.49863,15.17244 2.21984,19.26859 3.06889,1.87104 4.9503,2.01431 25.81018,1.96545 14.69675,-0.0344 23.70183,-0.46664 25.96537,-1.24626 z m 290.31675,-0.0555 c 5.37149,-2.27351 7.21788,-5.14464 7.21788,-11.22378 0,-4.74051 -0.38685,-5.76211 -3.27365,-8.64501 l -3.27364,-3.26923 -24.22636,0.0184 c -13.32449,0.0102 -25.42668,0.34689 -26.89375,0.74832 -3.59285,0.9831 -6.8326,6.46746 -6.8326,11.56647 0,3.1408 0.71148,4.9075 3.04805,7.56871 1.67643,1.90935 4.03893,3.66372 5.25,3.89861 1.21107,0.23489 12.0039,0.48836 23.98407,0.56326 16.39262,0.10248 22.57831,-0.20081 25,-1.2258 z m -251.0479,-90.55599 c 2.95227,-2.63785 3.26578,-3.4561 3.26578,-8.52345 v -5.60549 L 178.44132,168.97655 C 161.68466,152.30056 161.30675,152 157.09562,152 c -8.2096,0 -13.78713,5.80773 -12.78106,13.30856 0.49913,3.72126 2.11371,5.65733 17.42644,20.89634 L 178.61735,203 h 5.17555 c 4.30548,0 5.72456,-0.49054 8.44132,-2.91797 z m 176.61195,2.0342 c 3.78254,-2.39719 33.29631,-32.83572 33.80557,-34.8648 C 404.57686,159.58115 399.24159,152 391.91848,152 c -2.22748,0 -5.03288,0.49838 -6.23422,1.1075 -3.12423,1.58411 -31.54073,29.86411 -33.25257,33.09284 -0.78743,1.48519 -1.43001,3.96019 -1.42795,5.5 0.005,3.5931 3.36271,9.10899 6.25258,10.27084 2.88677,1.16059 9.84991,1.24774 11.58985,0.14505 z m -87.86962,-36.93652 c 4.65134,-3.45149 4.99301,-5.32476 5.00871,-27.46183 0.0156,-21.95788 -0.53339,-25.27978 -4.80666,-29.08614 -2.91106,-2.59299 -10.06904,-3.25688 -13.87804,-1.28716 -5.64202,2.9176 -6.30098,6.03684 -6.29682,29.80655 0.003,19.6413 0.16498,21.61334 2.01969,24.65542 3.70419,6.07557 12.16816,7.66584 17.95312,3.37316 z"
       id="path1" />
  </g>
  <g
     inkscape:groupmode="layer"
     id="layer1"
     inkscape:label="Text"
     style="display:inline">
    <path
       style="font-size:875px;font-family:Yellowtail;-inkscape-font-specification:'Yellowtail, Normal';display:inline;stroke:#4e4e4e;stroke-width:1.69681;stroke-opacity:0.23301"
       d="m 932.9339,759.68306 -2.7147,6.31152 q 0,6.77904 16.9144,13.09055 17.1233,6.07776 37.3788,6.07776 20.4644,0 44.8963,-6.77904 24.4319,-6.77903 42.3904,-16.59695 18.1673,-9.81791 29.8612,-20.57087 11.9027,-10.75295 11.9027,-18.70079 0,-10.05168 -20.8819,-18.70079 -20.882,-8.64912 -60.7666,-18.93455 -39.6758,-10.5192 -58.2607,-26.41487 -18.3762,-15.89567 -18.3762,-38.57038 0,-22.90846 14.6174,-43.71309 14.6174,-20.80463 38.0052,-36.93407 23.5966,-16.12943 51.3697,-28.75246 57.4254,-25.94735 106.4981,-25.94735 18.7938,0 33.2024,3.74016 27.5642,7.24656 27.5642,19.16831 0,11.92175 -1.8794,16.36319 -1.8794,4.20768 -3.1323,5.61024 -1.0441,1.40256 -2.9235,2.80512 -1.6705,1.40255 -2.5058,2.10383 -9.1881,8.64912 -50.3256,10.75296 -14.1997,0.70128 -15.4526,1.63632 -1.253,0.93504 -2.2971,0.93504 -0.8352,0 -2.0882,-1.87008 -1.2529,-1.87008 -1.2529,-6.07776 0,-4.20768 8.144,-15.42815 -25.476,1.63632 -54.502,13.09055 -28.8171,11.45424 -50.1168,25.94735 -21.2996,14.25935 -35.4993,28.28495 -14.1998,13.79183 -14.1998,19.63583 0,5.61023 3.1324,9.35039 8.7704,10.51919 48.655,21.97343 41.3463,11.92175 55.1284,19.16831 13.7821,7.24655 22.7614,13.79183 9.188,6.54528 14.6173,13.32432 12.738,16.36319 12.738,33.1939 0,16.83071 -8.1439,31.55758 -7.9352,14.72688 -24.2231,28.51871 -16.0792,13.79183 -38.0052,24.54479 -48.0286,24.07726 -114.4333,24.07726 -48.4462,0 -61.8107,-28.75246 -3.5499,-7.24656 -3.5499,-14.96063 0,-7.94784 3.1323,-14.25935 3.3411,-6.31152 7.9352,-9.58416 8.9792,-6.31152 12.738,-6.31152 3.7587,0 3.7587,2.80512 z m 425.5748,-4.6752 q 1.4618,10.75296 1.4618,17.06447 0,6.07776 -2.0883,10.75296 -1.8793,4.44143 -8.7704,12.85679 -6.6822,8.1816 -16.0791,16.59695 -22.9702,20.33711 -46.9845,20.33711 -34.4552,0 -34.4552,-34.12894 0,-29.68751 46.1492,-118.2825 1.6705,-3.27264 2.297,-4.6752 -16.0792,12.62304 -61.6019,68.95917 -45.3139,56.10237 -60.3489,79.47836 -1.2529,2.10384 -6.2646,4.6752 -5.0117,2.57135 -7.9352,2.57135 -2.7146,0 -5.8469,-2.10383 -3.3411,-1.87008 -4.1764,-1.87008 -2.7147,0 -2.7147,-2.10384 0,-1.87008 7.5175,-21.27215 7.3087,-19.63583 19.4203,-48.62206 33.2023,-79.94588 98.7717,-208.04629 22.9702,-44.8819 35.9171,-63.58269 9.188,-13.32431 30.9053,-13.32431 4.594,0 5.2205,3.03888 0.6265,3.03888 0.6265,6.54527 0,3.5064 -1.253,7.0128 l -22.3437,39.0379 q -66.4047,115.9449 -100.0247,192.15062 32.5759,-44.41437 63.2724,-68.49164 19.0027,-15.19439 28.3995,-15.19439 9.6058,0 17.3321,3.50639 7.7263,3.27264 7.7263,16.12944 0,4.67519 -13.5733,34.59645 -40.7198,89.7638 -40.7198,99.81547 0,9.81792 7.3086,9.81792 10.6498,0 32.7847,-23.14223 16.7056,-17.53199 21.0909,-22.44094 2.5058,-2.10385 4.594,-2.10385 3.9676,0 4.3852,4.44144 z m 143.668,-108.69834 q 15.8703,0 15.8703,12.15551 0,6.54528 -2.7146,9.58416 -2.7147,3.03888 -11.6939,20.33711 -8.7705,17.06447 -19.6291,43.94686 -10.6498,26.64862 -13.7821,45.58317 -0.6265,2.3376 -0.6265,6.54528 0,12.85679 6.2646,12.85679 6.2646,0 14.8263,-6.54528 8.5616,-6.77903 15.2438,-14.25935 6.6822,-7.71408 12.9468,-15.66191 6.4734,-7.94784 7.7264,-9.11664 1.2529,-1.1688 3.7587,-1.1688 3.9676,0 4.8029,6.77904 0.8353,6.77904 0.8353,14.02559 0,7.24656 -1.253,10.05168 -6.0557,13.32431 -26.7289,32.0251 -20.4644,18.70079 -37.3787,18.70079 -16.7056,0 -24.6408,-11.45423 -7.9351,-11.45424 -7.9351,-25.24607 0,-14.02559 4.1763,-24.54478 -17.332,25.24606 -39.8845,42.77805 -22.3438,17.53199 -36.5435,17.53199 -14.1998,0 -23.179,-9.58415 -11.4851,-11.92175 -11.4851,-32.96014 0,-21.27215 8.3528,-42.5443 8.5616,-21.50591 22.3437,-39.0379 13.7821,-17.76575 30.2789,-32.25886 34.6641,-30.38879 63.8988,-30.38879 11.2763,0 18.3762,4.20768 7.0999,4.20768 8.9793,10.51919 5.0116,-8.41535 8.3527,-10.51919 3.55,-2.3376 10.441,-2.3376 z m -27.773,25.94735 q -35.7082,0 -73.9222,44.41437 -13.5733,15.89567 -25.0584,38.10286 -11.2763,22.20719 -11.2763,30.38879 0,8.18159 4.1764,8.18159 5.847,0 32.5759,-25.71359 26.729,-25.94734 35.4994,-38.10285 9.6057,-13.55808 38.0052,-57.27117 z m 304.877,-198.6959 q 3.9675,0 6.2645,2.80512 2.2971,2.80511 2.2971,5.84399 0,2.80512 -4.1764,10.75296 -3.9676,7.71407 -18.585,34.12894 -14.6174,26.1811 -22.7614,41.14174 -47.402,86.25739 -74.3398,145.86617 -26.9378,59.60876 -26.9378,71.99804 v 1.87008 q 0,9.58415 6.2646,9.58415 6.2646,0 15.0351,-6.54528 8.9792,-6.54527 15.6614,-14.02559 6.6823,-7.48032 13.3645,-15.42815 6.8911,-8.1816 8.3528,-9.58415 1.4617,-1.40257 3.7587,-1.40257 3.55,0 4.5941,5.14272 1.0441,4.90896 1.0441,14.0256 0,8.88287 -1.2529,11.68799 -6.0558,13.09055 -26.729,32.0251 -20.4643,18.70079 -38.8405,18.70079 -31.3229,0 -31.3229,-29.6875 0,-18.46703 12.5292,-48.3883 -16.9144,24.54479 -34.4553,41.84302 -32.5759,31.79134 -56.5902,31.79134 -13.3644,0 -19.8379,-10.51919 -6.2645,-10.51919 -6.2645,-30.15502 0,-19.86959 13.7821,-47.45326 13.782,-27.58367 34.2464,-49.55709 20.6732,-22.2072 45.7315,-36.93407 25.0584,-14.96063 46.1492,-14.96063 6.6823,0 15.6615,9.11664 6.0558,-10.75296 22.3437,-43.01182 51.1609,-96.54283 67.6576,-117.81498 8.7705,-12.85679 27.3555,-12.85679 z m -130.0948,195.65702 q -30.0701,7.48031 -55.9637,31.32382 -25.8937,23.84351 -38.8405,50.02461 -12.9468,25.94735 -12.9468,33.66143 0,7.71407 2.9234,7.71407 12.5292,0 62.0195,-62.64764 24.6408,-30.85631 42.8081,-60.07629 z M 1834.8267,645.842 q 6.2646,0 12.7381,6.31152 6.6822,6.31151 6.6822,19.40206 0,12.8568 -8.144,33.66143 -8.144,20.57087 -22.3437,42.07678 -14.1997,21.27215 -31.323,40.2067 -16.9144,18.70078 -36.7523,30.8563 -19.629,11.92176 -35.7082,11.92176 -16.0791,0 -25.8936,-11.22048 -9.6057,-11.45423 -9.6057,-31.55758 0,-20.33711 8.7704,-44.8819 8.9793,-24.54479 22.9702,-43.24558 13.9909,-18.93455 30.2789,-33.89518 34.0376,-30.62255 59.7224,-30.62255 11.4851,0 17.3321,6.31152 2.0882,2.10384 2.0882,3.74016 v 1.40256 q 2.9235,-0.46752 9.188,-0.46752 z m -21.0908,31.09006 h -1.4617 q -7.3087,0 -7.3087,-11.92175 -15.2438,5.61024 -31.9494,19.63583 -16.7056,14.02559 -29.8613,33.1939 -26.7289,38.33662 -27.1466,64.75149 0,13.09055 8.5617,13.09055 8.5616,0 25.476,-12.62303 16.9144,-12.62303 33.4112,-35.99902 16.7056,-23.37599 24.8495,-40.44046 8.3528,-17.29823 8.3528,-23.37599 0,-6.31152 -2.9235,-6.31152 z m 252.8808,-26.64862 -2.5058,-11.22048 q 0,-9.58415 5.8469,-14.96063 6.0558,-5.61023 15.035,-5.61023 17.5409,0 17.5409,25.0123 0,17.99951 -15.8703,49.79086 -15.8703,31.55758 -37.5876,61.24508 -21.5084,29.45375 -45.7315,51.42718 -24.2231,21.73966 -37.3787,21.73966 -12.9469,0 -18.3762,-7.94783 -5.4293,-7.94784 -5.4293,-15.19439 0,-7.48032 0.6265,-14.02559 2.297,-22.90848 11.2762,-43.71311 -22.3437,32.72639 -48.0285,58.9075 -25.6849,25.94735 -43.0169,25.94735 -8.3528,0 -13.3645,-5.61024 -5.0117,-5.61024 -5.0117,-18.93455 0,-13.55808 14.4086,-50.49214 14.4086,-37.16782 27.5642,-59.60877 -4.8028,3.27264 -8.5616,3.27264 -3.5499,0 -7.9352,-4.44144 -4.1764,-4.6752 -4.1764,-7.24656 0,-2.57135 3.1323,-7.48031 3.1324,-4.90896 24.0143,-24.07726 20.882,-19.40208 28.6083,-19.40208 7.7264,0 14.6174,3.27264 7.0999,3.27264 7.0999,9.11663 0,5.61024 -29.0259,66.62157 -29.026,61.01133 -29.026,66.15405 0,0.70128 0.4176,0.70128 4.3853,0 43.6434,-50.02462 39.4669,-50.02461 62.0195,-82.28348 3.1323,-5.84399 9.3969,-5.84399 l 1.8794,0.23376 11.485,-2.57136 q 2.7147,0 5.2205,2.3376 2.7147,2.3376 2.7147,4.20768 0,1.87008 -7.5175,16.83071 -7.3087,14.96063 -24.0143,56.56989 -16.7056,41.60926 -16.7056,58.43997 0,4.20768 2.7147,4.20768 7.9351,0 32.9935,-32.02511 25.2672,-32.25886 41.1375,-61.7126 15.8703,-29.45375 15.8703,-41.60926 z m 337.4529,37.40158 q 5.0117,0 5.0117,9.11663 0,8.88288 -3.55,30.85631 -2.7146,14.72687 -30.07,42.07678 -32.9936,32.72638 -72.4605,46.75197 -23.8055,8.41536 -46.5668,8.41536 -22.5526,0 -41.3464,-21.27215 -18.5849,-21.50591 -18.5849,-50.7259 0,-29.45374 10.441,-60.77756 10.6498,-31.55759 28.3994,-60.07629 17.9586,-28.75247 42.1816,-55.16733 24.432,-26.41487 50.7433,-45.81694 26.3113,-19.40208 55.1284,-30.85631 28.8172,-11.45423 54.7108,-11.45423 20.4644,0 34.8729,16.59695 7.5175,8.88288 7.5175,22.44095 0,13.32431 -11.6939,33.89518 -11.6939,20.33711 -27.773,37.16782 -15.8703,16.83071 -32.9936,28.51871 -16.9144,11.68799 -27.1465,11.68799 -10.2322,0 -17.5409,-7.01279 -7.3087,-7.24656 -7.3087,-12.8568 0,-5.61023 2.0882,-12.38927 2.297,-6.77904 5.6382,-6.77904 -0.8353,1.1688 -0.8353,2.3376 0,2.80512 7.0999,2.80512 7.3087,0 24.223,-14.25935 16.9144,-14.25936 30.4877,-32.02511 13.7822,-17.76575 13.7822,-26.64862 0,-6.07776 -7.3087,-6.07776 -19.6291,0 -54.2932,20.57087 -34.4553,20.33711 -65.9871,52.59597 -31.5317,32.25886 -54.9196,76.67324 -23.179,44.18062 -23.179,79.47836 0,14.72687 6.8911,23.60975 7.0999,8.88288 21.5084,8.88288 14.6174,0 34.4553,-9.3504 19.8379,-9.35039 37.5875,-22.90847 17.9586,-13.55807 33.8289,-27.81742 15.8703,-14.25936 25.2672,-25.01231 9.6057,-10.75295 9.8145,-12.85679 0.2088,-2.3376 1.8794,-2.3376 z M 2560.058,645.842 q 6.2646,0 12.738,6.31152 6.6823,6.31151 6.6823,19.40206 0,12.8568 -8.144,33.66143 -8.144,20.57087 -22.3437,42.07678 -14.1998,21.27215 -31.323,40.2067 -16.9144,18.70078 -36.7523,30.8563 -19.6291,11.92176 -35.7082,11.92176 -16.0791,0 -25.8936,-11.22048 -9.6058,-11.45423 -9.6058,-31.55758 0,-20.33711 8.7705,-44.8819 8.9792,-24.54479 22.9701,-43.24558 13.991,-18.93455 30.2789,-33.89518 34.0376,-30.62255 59.7225,-30.62255 11.4851,0 17.332,6.31152 2.0882,2.10384 2.0882,3.74016 v 1.40256 q 2.9235,-0.46752 9.1881,-0.46752 z m -21.0908,31.09006 h -1.4618 q -7.3086,0 -7.3086,-11.92175 -15.2439,5.61024 -31.9494,19.63583 -16.7056,14.02559 -29.8613,33.1939 -26.7289,38.33662 -27.1466,64.75149 0,13.09055 8.5616,13.09055 8.5617,0 25.4761,-12.62303 16.9143,-12.62303 33.4111,-35.99902 16.7056,-23.37599 24.8496,-40.44046 8.3528,-17.29823 8.3528,-23.37599 0,-6.31152 -2.9235,-6.31152 z m 144.921,111.03595 q 0,10.28543 12.5292,10.28543 6.6822,0 16.7056,-7.48032 10.2321,-7.48031 18.3761,-16.36319 21.7172,-24.07726 24.6407,-24.07726 5.4294,0 5.4294,17.53199 0,17.53198 -9.8146,24.07726 -29.8612,30.15503 -46.1492,36.70031 -9.188,3.50639 -20.2555,3.27263 -11.0674,-0.23375 -21.9261,-10.75295 -10.8586,-10.5192 -10.8586,-25.47983 0,-15.19439 7.0999,-34.3627 7.0999,-19.16831 14.4086,-32.72638 7.5174,-13.79184 18.3761,-31.79135 10.8586,-18.23327 11.4851,-22.6747 l -0.4176,-0.46752 q -6.8911,0.70127 -34.2465,30.38878 -27.1466,29.6875 -44.8963,51.66093 -17.7497,21.97343 -42.3904,58.67373 -6.8911,10.05168 -11.2763,10.05168 -4.3852,0 -11.6939,-3.03888 -7.5175,-3.27264 -9.188,-4.6752 -1.6706,-1.40256 -1.6706,-4.20768 0,-2.80511 1.4617,-6.77903 1.4617,-4.20768 2.9235,-6.77904 1.2529,-2.80512 4.3852,-8.41535 3.1323,-5.61024 12.3204,-23.60975 9.3969,-18.23328 28.6083,-54.23229 19.2114,-35.99903 22.9702,-43.47934 7.9351,-15.42816 12.9468,-22.44095 9.3969,-13.32432 31.7406,-13.32432 5.0117,0 5.0117,7.0128 0,10.98672 -18.1673,41.3755 l -8.7704,14.72687 q 36.1258,-44.88189 60.9753,-56.80365 12.1116,-5.84399 21.7173,-5.84399 9.8146,0 15.4527,5.84399 5.8469,5.844 5.8469,13.09056 0,7.01279 -4.3852,17.06447 -4.3852,9.81791 -8.9793,17.76575 -4.3852,7.71407 -11.6938,19.63583 -7.3087,11.92175 -7.9352,13.09055 -0.6265,0.93504 -3.3411,5.61024 -2.5059,4.44144 -3.7588,6.54527 -1.2529,2.10384 -4.1764,7.48032 -2.9234,5.14272 -4.8028,8.64911 -1.6706,3.5064 -4.3853,8.64912 -2.5058,5.14272 -4.1763,8.88288 -1.4618,3.74015 -3.1323,8.18159 -2.9235,8.1816 -2.9235,13.55808 z m 201.72,-265.08371 8.5616,2.3376 q 1.8793,0 3.3411,2.10384 1.4617,2.10384 1.4617,3.97392 0,1.87008 -4.3852,10.05167 -4.3852,8.1816 -10.441,18.70079 -5.8469,10.28544 -6.2646,11.22048 16.288,-1.40256 22.9702,-1.40256 6.891,0 9.3969,1.16879 2.5058,0.93505 5.6381,5.84401 3.3411,4.67519 6.0558,7.24655 2.7147,2.3376 2.7147,7.24656 0,4.90895 -5.4294,8.41535 -5.2205,3.27264 -11.2762,3.97392 -48.4462,5.37648 -53.4579,5.61024 -16.9144,28.98622 -47.4021,90.46507 -30.2789,61.24509 -32.1582,76.67324 -0.8353,7.0128 -0.8353,11.45424 0,9.11663 8.5616,9.11663 8.5616,0 19.0025,-7.24655 10.4411,-7.48032 19.2115,-16.12944 23.3878,-23.37598 25.0584,-23.37598 5.4293,0 5.4293,21.03838 0,11.45424 -9.3969,20.57087 -21.0908,20.33711 -35.4994,30.62255 -14.4086,10.28544 -28.8171,10.28544 -3.1323,0 -5.8469,-0.70129 -16.7056,-3.50639 -24.6408,-13.55807 -7.7263,-10.28543 -7.7263,-27.58367 0.2088,-17.29823 9.188,-41.84302 9.1881,-24.77854 22.9702,-52.59597 22.5526,-45.34942 45.1051,-85.0886 l -7.9352,1.1688 q -24.223,3.03888 -28.1906,3.03888 h -1.8794 q -6.0558,0 -11.6939,-2.57135 -5.6381,-2.80512 -5.6381,-6.77904 0,-3.97392 2.9234,-7.71408 3.1323,-3.74016 3.7588,-5.84399 1.4617,-5.14272 10.8586,-11.45424 9.6057,-6.31151 14.4086,-6.54528 4.8029,-0.46751 9.188,-0.70128 4.5941,-0.23375 10.0234,-0.46751 5.6381,-0.23377 8.5616,-0.46752 l 18.7938,-0.93505 q 17.5408,-29.45374 24.0143,-37.8691 6.6822,-8.41535 7.7263,-9.11663 1.0441,-0.93504 4.1764,-0.93504 z m 16.4967,173.68359 q 49.2815,-62.64764 83.9456,-62.64764 8.5616,0 13.9909,5.84399 5.6382,5.61024 5.6382,14.72687 0,9.11664 -11.694,30.62255 -11.485,21.27215 -21.2996,35.99902 -5.2205,7.48032 -11.9027,7.48032 -6.4734,0 -10.2322,-5.37648 -3.5499,-5.37648 -3.5499,-12.62304 0,-16.12942 15.4526,-36.46653 l -0.4176,-0.46752 q -6.8911,0.70127 -34.2464,30.38878 -27.1466,29.6875 -46.358,53.29725 -19.0026,23.37599 -41.3464,57.03741 -6.4734,10.05168 -11.0674,10.05168 -4.3853,0 -11.6939,-3.03888 -7.5175,-3.27264 -8.9793,-4.6752 -1.6705,-1.40256 -1.6705,-4.67519 0,-3.27265 1.6705,-7.48032 1.6706,-4.44144 6.2646,-12.38928 4.3852,-7.94783 13.3645,-25.71358 9.1881,-17.76576 28.3995,-53.76477 19.2114,-35.99903 22.9702,-43.47934 7.9351,-15.42816 12.9468,-22.44095 9.3969,-13.32432 31.7406,-13.32432 5.0117,0 5.0117,7.0128 0,10.98672 -18.1673,41.3755 z M 3124.9155,645.842 q 6.2646,0 12.7381,6.31152 6.6822,6.31151 6.6822,19.40206 0,12.8568 -8.144,33.66143 -8.144,20.57087 -22.3437,42.07678 -14.1997,21.27215 -31.323,40.2067 -16.9143,18.70078 -36.7522,30.8563 -19.6291,11.92176 -35.7082,11.92176 -16.0792,0 -25.8937,-11.22048 -9.6057,-11.45423 -9.6057,-31.55758 0,-20.33711 8.7704,-44.8819 8.9793,-24.54479 22.9702,-43.24558 13.9909,-18.93455 30.2789,-33.89518 34.0376,-30.62255 59.7224,-30.62255 11.4852,0 17.3321,6.31152 2.0882,2.10384 2.0882,3.74016 v 1.40256 q 2.9235,-0.46752 9.188,-0.46752 z m -21.0907,31.09006 h -1.4618 q -7.3087,0 -7.3087,-11.92175 -15.2438,5.61024 -31.9494,19.63583 -16.7056,14.02559 -29.8613,33.1939 -26.7289,38.33662 -27.1465,64.75149 0,13.09055 8.5616,13.09055 8.5616,0 25.476,-12.62303 16.9144,-12.62303 33.4112,-35.99902 16.7056,-23.37599 24.8495,-40.44046 8.3528,-17.29823 8.3528,-23.37599 0,-6.31152 -2.9234,-6.31152 z m 209.0286,-203.83862 q 10.0234,0 17.5409,6.77904 7.7263,6.54528 7.7263,19.63583 0,13.09056 -12.9468,41.14174 -12.9468,27.81743 -31.1142,57.03742 -18.1673,28.98622 -41.1375,61.7126 -36.3346,51.89469 -69.7458,93.2702 -0.2088,2.80511 -1.8794,10.51919 -1.4617,7.48031 -1.4617,15.19439 0,7.71408 6.2646,14.0256 6.4734,6.07775 15.8703,6.07775 9.3969,0 20.0467,-7.48032 10.8586,-7.48031 18.7938,-16.59695 20.8819,-24.07726 25.8936,-24.07726 5.0117,0 5.0117,17.06447 v 4.67519 q 0,9.11664 -2.9235,13.32431 -17.5408,24.07728 -39.4669,35.99903 -21.9261,11.68799 -41.5552,11.68799 -19.629,0 -29.8612,-13.32431 -10.2322,-13.55808 -10.2322,-36.93406 0,-45.58318 21.7173,-107.06203 21.9261,-61.71261 49.2815,-104.95818 61.6018,-97.71164 94.1777,-97.71164 z m -9.3968,38.80415 q 0,-3.5064 -2.0883,-3.5064 -7.3087,0 -38.4228,46.75197 -31.1141,46.75198 -45.1051,74.56941 -13.7821,27.81742 -26.1025,69.8942 24.6407,-32.72638 68.0753,-101.9193 43.6434,-69.42669 43.6434,-85.78988 z"
       id="text1"
       aria-label="Shadow Control" />
  </g>
</svg>
